<svg xmlns="http://www.w3.org/2000/svg" version="1.1" xmlns:xlink="http://www.w3.org/1999/xlink" xmlns:svgjs="http://svgjs.dev/svgjs" viewBox="0 0 800 800" opacity="0.69"><g stroke-width="1" stroke="hsla(0, 0%, 100%, 1)" fill="none" stroke-linecap="round" transform="matrix(1,0,0,1,-5,-406.9475803375244)"><path d="M10,10C26.435185185185183,10.416666666666666,53.93518518518518,15.958333333333332,88.88888888888889,12C123.84259259259258,8.041666666666668,140.74074074074073,-10.666666666666666,177.77777777777777,-9C214.8148148148148,-7.333333333333334,229.6296296296296,18.75,266.66666666666663,20C303.7037037037037,21.25,318.5185185185185,-3.833333333333333,355.55555555555554,-3C392.5925925925926,-2.166666666666667,407.40740740740745,23.583333333333332,444.44444444444446,24C481.48148148148147,24.416666666666668,496.29629629629625,-1.8333333333333333,533.3333333333333,-1C570.3703703703703,-0.16666666666666674,585.1851851851851,27.166666666666668,622.2222222222222,28C659.2592592592592,28.833333333333332,674.074074074074,2.5833333333333335,711.1111111111111,3C748.1481481481482,3.4166666666666665,781.4814814814815,24.375,800,30"></path><path d="M10,10C26.435185185185183,10.416666666666666,53.93518518518518,15.958333333333332,88.88888888888889,12C123.84259259259258,8.041666666666668,140.74074074074073,-10.666666666666666,177.77777777777777,-9C214.8148148148148,-7.333333333333334,229.6296296296296,18.75,266.66666666666663,20C303.7037037037037,21.25,318.5185185185185,-3.833333333333333,355.55555555555554,-3C392.5925925925926,-2.166666666666667,407.40740740740745,23.583333333333332,444.44444444444446,24C481.48148148148147,24.416666666666668,496.29629629629625,-1.8333333333333333,533.3333333333333,-1C570.3703703703703,-0.16666666666666674,585.1851851851851,27.166666666666668,622.2222222222222,28C659.2592592592592,28.833333333333332,674.074074074074,2.5833333333333335,711.1111111111111,3C748.1481481481482,3.4166666666666665,781.4814814814815,24.375,800,30" transform="matrix(1,0,0,1,0,1593)"></path><path d="M10,10C26.435185185185183,10.416666666666666,53.93518518518518,15.958333333333332,88.88888888888889,12C123.84259259259258,8.041666666666668,140.74074074074073,-10.666666666666666,177.77777777777777,-9C214.8148148148148,-7.333333333333334,229.6296296296296,18.75,266.66666666666663,20C303.7037037037037,21.25,318.5185185185185,-3.833333333333333,355.55555555555554,-3C392.5925925925926,-2.166666666666667,407.40740740740745,23.583333333333332,444.44444444444446,24C481.48148148148147,24.416666666666668,496.29629629629625,-1.8333333333333333,533.3333333333333,-1C570.3703703703703,-0.16666666666666674,585.1851851851851,27.166666666666668,622.2222222222222,28C659.2592592592592,28.833333333333332,674.074074074074,2.5833333333333335,711.1111111111111,3C748.1481481481482,3.4166666666666665,781.4814814814815,24.375,800,30" transform="matrix(1,0,0,1,0,1534)"></path><path d="M10,10C26.435185185185183,10.416666666666666,53.93518518518518,15.958333333333332,88.88888888888889,12C123.84259259259258,8.041666666666668,140.74074074074073,-10.666666666666666,177.77777777777777,-9C214.8148148148148,-7.333333333333334,229.6296296296296,18.75,266.66666666666663,20C303.7037037037037,21.25,318.5185185185185,-3.833333333333333,355.55555555555554,-3C392.5925925925926,-2.166666666666667,407.40740740740745,23.583333333333332,444.44444444444446,24C481.48148148148147,24.416666666666668,496.29629629629625,-1.8333333333333333,533.3333333333333,-1C570.3703703703703,-0.16666666666666674,585.1851851851851,27.166666666666668,622.2222222222222,28C659.2592592592592,28.833333333333332,674.074074074074,2.5833333333333335,711.1111111111111,3C748.1481481481482,3.4166666666666665,781.4814814814815,24.375,800,30" transform="matrix(1,0,0,1,0,1475)"></path><path d="M10,10C26.435185185185183,10.416666666666666,53.93518518518518,15.958333333333332,88.88888888888889,12C123.84259259259258,8.041666666666668,140.74074074074073,-10.666666666666666,177.77777777777777,-9C214.8148148148148,-7.333333333333334,229.6296296296296,18.75,266.66666666666663,20C303.7037037037037,21.25,318.5185185185185,-3.833333333333333,355.55555555555554,-3C392.5925925925926,-2.166666666666667,407.40740740740745,23.583333333333332,444.44444444444446,24C481.48148148148147,24.416666666666668,496.29629629629625,-1.8333333333333333,533.3333333333333,-1C570.3703703703703,-0.16666666666666674,585.1851851851851,27.166666666666668,622.2222222222222,28C659.2592592592592,28.833333333333332,674.074074074074,2.5833333333333335,711.1111111111111,3C748.1481481481482,3.4166666666666665,781.4814814814815,24.375,800,30" transform="matrix(1,0,0,1,0,1416)"></path><path d="M10,10C26.435185185185183,10.416666666666666,53.93518518518518,15.958333333333332,88.88888888888889,12C123.84259259259258,8.041666666666668,140.74074074074073,-10.666666666666666,177.77777777777777,-9C214.8148148148148,-7.333333333333334,229.6296296296296,18.75,266.66666666666663,20C303.7037037037037,21.25,318.5185185185185,-3.833333333333333,355.55555555555554,-3C392.5925925925926,-2.166666666666667,407.40740740740745,23.583333333333332,444.44444444444446,24C481.48148148148147,24.416666666666668,496.29629629629625,-1.8333333333333333,533.3333333333333,-1C570.3703703703703,-0.16666666666666674,585.1851851851851,27.166666666666668,622.2222222222222,28C659.2592592592592,28.833333333333332,674.074074074074,2.5833333333333335,711.1111111111111,3C748.1481481481482,3.4166666666666665,781.4814814814815,24.375,800,30" transform="matrix(1,0,0,1,0,1357)"></path><path d="M10,10C26.435185185185183,10.416666666666666,53.93518518518518,15.958333333333332,88.88888888888889,12C123.84259259259258,8.041666666666668,140.74074074074073,-10.666666666666666,177.77777777777777,-9C214.8148148148148,-7.333333333333334,229.6296296296296,18.75,266.66666666666663,20C303.7037037037037,21.25,318.5185185185185,-3.833333333333333,355.55555555555554,-3C392.5925925925926,-2.166666666666667,407.40740740740745,23.583333333333332,444.44444444444446,24C481.48148148148147,24.416666666666668,496.29629629629625,-1.8333333333333333,533.3333333333333,-1C570.3703703703703,-0.16666666666666674,585.1851851851851,27.166666666666668,622.2222222222222,28C659.2592592592592,28.833333333333332,674.074074074074,2.5833333333333335,711.1111111111111,3C748.1481481481482,3.4166666666666665,781.4814814814815,24.375,800,30" transform="matrix(1,0,0,1,0,1298)"></path><path d="M10,10C26.435185185185183,10.416666666666666,53.93518518518518,15.958333333333332,88.88888888888889,12C123.84259259259258,8.041666666666668,140.74074074074073,-10.666666666666666,177.77777777777777,-9C214.8148148148148,-7.333333333333334,229.6296296296296,18.75,266.66666666666663,20C303.7037037037037,21.25,318.5185185185185,-3.833333333333333,355.55555555555554,-3C392.5925925925926,-2.166666666666667,407.40740740740745,23.583333333333332,444.44444444444446,24C481.48148148148147,24.416666666666668,496.29629629629625,-1.8333333333333333,533.3333333333333,-1C570.3703703703703,-0.16666666666666674,585.1851851851851,27.166666666666668,622.2222222222222,28C659.2592592592592,28.833333333333332,674.074074074074,2.5833333333333335,711.1111111111111,3C748.1481481481482,3.4166666666666665,781.4814814814815,24.375,800,30" transform="matrix(1,0,0,1,0,1239)"></path><path d="M10,10C26.435185185185183,10.416666666666666,53.93518518518518,15.958333333333332,88.88888888888889,12C123.84259259259258,8.041666666666668,140.74074074074073,-10.666666666666666,177.77777777777777,-9C214.8148148148148,-7.333333333333334,229.6296296296296,18.75,266.66666666666663,20C303.7037037037037,21.25,318.5185185185185,-3.833333333333333,355.55555555555554,-3C392.5925925925926,-2.166666666666667,407.40740740740745,23.583333333333332,444.44444444444446,24C481.48148148148147,24.416666666666668,496.29629629629625,-1.8333333333333333,533.3333333333333,-1C570.3703703703703,-0.16666666666666674,585.1851851851851,27.166666666666668,622.2222222222222,28C659.2592592592592,28.833333333333332,674.074074074074,2.5833333333333335,711.1111111111111,3C748.1481481481482,3.4166666666666665,781.4814814814815,24.375,800,30" transform="matrix(1,0,0,1,0,1180)"></path><path d="M10,10C26.435185185185183,10.416666666666666,53.93518518518518,15.958333333333332,88.88888888888889,12C123.84259259259258,8.041666666666668,140.74074074074073,-10.666666666666666,177.77777777777777,-9C214.8148148148148,-7.333333333333334,229.6296296296296,18.75,266.66666666666663,20C303.7037037037037,21.25,318.5185185185185,-3.833333333333333,355.55555555555554,-3C392.5925925925926,-2.166666666666667,407.40740740740745,23.583333333333332,444.44444444444446,24C481.48148148148147,24.416666666666668,496.29629629629625,-1.8333333333333333,533.3333333333333,-1C570.3703703703703,-0.16666666666666674,585.1851851851851,27.166666666666668,622.2222222222222,28C659.2592592592592,28.833333333333332,674.074074074074,2.5833333333333335,711.1111111111111,3C748.1481481481482,3.4166666666666665,781.4814814814815,24.375,800,30" transform="matrix(1,0,0,1,0,1121)"></path><path d="M10,10C26.435185185185183,10.416666666666666,53.93518518518518,15.958333333333332,88.88888888888889,12C123.84259259259258,8.041666666666668,140.74074074074073,-10.666666666666666,177.77777777777777,-9C214.8148148148148,-7.333333333333334,229.6296296296296,18.75,266.66666666666663,20C303.7037037037037,21.25,318.5185185185185,-3.833333333333333,355.55555555555554,-3C392.5925925925926,-2.166666666666667,407.40740740740745,23.583333333333332,444.44444444444446,24C481.48148148148147,24.416666666666668,496.29629629629625,-1.8333333333333333,533.3333333333333,-1C570.3703703703703,-0.16666666666666674,585.1851851851851,27.166666666666668,622.2222222222222,28C659.2592592592592,28.833333333333332,674.074074074074,2.5833333333333335,711.1111111111111,3C748.1481481481482,3.4166666666666665,781.4814814814815,24.375,800,30" transform="matrix(1,0,0,1,0,1062)"></path><path d="M10,10C26.435185185185183,10.416666666666666,53.93518518518518,15.958333333333332,88.88888888888889,12C123.84259259259258,8.041666666666668,140.74074074074073,-10.666666666666666,177.77777777777777,-9C214.8148148148148,-7.333333333333334,229.6296296296296,18.75,266.66666666666663,20C303.7037037037037,21.25,318.5185185185185,-3.833333333333333,355.55555555555554,-3C392.5925925925926,-2.166666666666667,407.40740740740745,23.583333333333332,444.44444444444446,24C481.48148148148147,24.416666666666668,496.29629629629625,-1.8333333333333333,533.3333333333333,-1C570.3703703703703,-0.16666666666666674,585.1851851851851,27.166666666666668,622.2222222222222,28C659.2592592592592,28.833333333333332,674.074074074074,2.5833333333333335,711.1111111111111,3C748.1481481481482,3.4166666666666665,781.4814814814815,24.375,800,30" transform="matrix(1,0,0,1,0,1003)"></path><path d="M10,10C26.435185185185183,10.416666666666666,53.93518518518518,15.958333333333332,88.88888888888889,12C123.84259259259258,8.041666666666668,140.74074074074073,-10.666666666666666,177.77777777777777,-9C214.8148148148148,-7.333333333333334,229.6296296296296,18.75,266.66666666666663,20C303.7037037037037,21.25,318.5185185185185,-3.833333333333333,355.55555555555554,-3C392.5925925925926,-2.166666666666667,407.40740740740745,23.583333333333332,444.44444444444446,24C481.48148148148147,24.416666666666668,496.29629629629625,-1.8333333333333333,533.3333333333333,-1C570.3703703703703,-0.16666666666666674,585.1851851851851,27.166666666666668,622.2222222222222,28C659.2592592592592,28.833333333333332,674.074074074074,2.5833333333333335,711.1111111111111,3C748.1481481481482,3.4166666666666665,781.4814814814815,24.375,800,30" transform="matrix(1,0,0,1,0,944)"></path><path d="M10,10C26.435185185185183,10.416666666666666,53.93518518518518,15.958333333333332,88.88888888888889,12C123.84259259259258,8.041666666666668,140.74074074074073,-10.666666666666666,177.77777777777777,-9C214.8148148148148,-7.333333333333334,229.6296296296296,18.75,266.66666666666663,20C303.7037037037037,21.25,318.5185185185185,-3.833333333333333,355.55555555555554,-3C392.5925925925926,-2.166666666666667,407.40740740740745,23.583333333333332,444.44444444444446,24C481.48148148148147,24.416666666666668,496.29629629629625,-1.8333333333333333,533.3333333333333,-1C570.3703703703703,-0.16666666666666674,585.1851851851851,27.166666666666668,622.2222222222222,28C659.2592592592592,28.833333333333332,674.074074074074,2.5833333333333335,711.1111111111111,3C748.1481481481482,3.4166666666666665,781.4814814814815,24.375,800,30" transform="matrix(1,0,0,1,0,885)"></path><path d="M10,10C26.435185185185183,10.416666666666666,53.93518518518518,15.958333333333332,88.88888888888889,12C123.84259259259258,8.041666666666668,140.74074074074073,-10.666666666666666,177.77777777777777,-9C214.8148148148148,-7.333333333333334,229.6296296296296,18.75,266.66666666666663,20C303.7037037037037,21.25,318.5185185185185,-3.833333333333333,355.55555555555554,-3C392.5925925925926,-2.166666666666667,407.40740740740745,23.583333333333332,444.44444444444446,24C481.48148148148147,24.416666666666668,496.29629629629625,-1.8333333333333333,533.3333333333333,-1C570.3703703703703,-0.16666666666666674,585.1851851851851,27.166666666666668,622.2222222222222,28C659.2592592592592,28.833333333333332,674.074074074074,2.5833333333333335,711.1111111111111,3C748.1481481481482,3.4166666666666665,781.4814814814815,24.375,800,30" transform="matrix(1,0,0,1,0,826)"></path><path d="M10,10C26.435185185185183,10.416666666666666,53.93518518518518,15.958333333333332,88.88888888888889,12C123.84259259259258,8.041666666666668,140.74074074074073,-10.666666666666666,177.77777777777777,-9C214.8148148148148,-7.333333333333334,229.6296296296296,18.75,266.66666666666663,20C303.7037037037037,21.25,318.5185185185185,-3.833333333333333,355.55555555555554,-3C392.5925925925926,-2.166666666666667,407.40740740740745,23.583333333333332,444.44444444444446,24C481.48148148148147,24.416666666666668,496.29629629629625,-1.8333333333333333,533.3333333333333,-1C570.3703703703703,-0.16666666666666674,585.1851851851851,27.166666666666668,622.2222222222222,28C659.2592592592592,28.833333333333332,674.074074074074,2.5833333333333335,711.1111111111111,3C748.1481481481482,3.4166666666666665,781.4814814814815,24.375,800,30" transform="matrix(1,0,0,1,0,767)"></path><path d="M10,10C26.435185185185183,10.416666666666666,53.93518518518518,15.958333333333332,88.88888888888889,12C123.84259259259258,8.041666666666668,140.74074074074073,-10.666666666666666,177.77777777777777,-9C214.8148148148148,-7.333333333333334,229.6296296296296,18.75,266.66666666666663,20C303.7037037037037,21.25,318.5185185185185,-3.833333333333333,355.55555555555554,-3C392.5925925925926,-2.166666666666667,407.40740740740745,23.583333333333332,444.44444444444446,24C481.48148148148147,24.416666666666668,496.29629629629625,-1.8333333333333333,533.3333333333333,-1C570.3703703703703,-0.16666666666666674,585.1851851851851,27.166666666666668,622.2222222222222,28C659.2592592592592,28.833333333333332,674.074074074074,2.5833333333333335,711.1111111111111,3C748.1481481481482,3.4166666666666665,781.4814814814815,24.375,800,30" transform="matrix(1,0,0,1,0,708)"></path><path d="M10,10C26.435185185185183,10.416666666666666,53.93518518518518,15.958333333333332,88.88888888888889,12C123.84259259259258,8.041666666666668,140.74074074074073,-10.666666666666666,177.77777777777777,-9C214.8148148148148,-7.333333333333334,229.6296296296296,18.75,266.66666666666663,20C303.7037037037037,21.25,318.5185185185185,-3.833333333333333,355.55555555555554,-3C392.5925925925926,-2.166666666666667,407.40740740740745,23.583333333333332,444.44444444444446,24C481.48148148148147,24.416666666666668,496.29629629629625,-1.8333333333333333,533.3333333333333,-1C570.3703703703703,-0.16666666666666674,585.1851851851851,27.166666666666668,622.2222222222222,28C659.2592592592592,28.833333333333332,674.074074074074,2.5833333333333335,711.1111111111111,3C748.1481481481482,3.4166666666666665,781.4814814814815,24.375,800,30" transform="matrix(1,0,0,1,0,649)"></path><path d="M10,10C26.435185185185183,10.416666666666666,53.93518518518518,15.958333333333332,88.88888888888889,12C123.84259259259258,8.041666666666668,140.74074074074073,-10.666666666666666,177.77777777777777,-9C214.8148148148148,-7.333333333333334,229.6296296296296,18.75,266.66666666666663,20C303.7037037037037,21.25,318.5185185185185,-3.833333333333333,355.55555555555554,-3C392.5925925925926,-2.166666666666667,407.40740740740745,23.583333333333332,444.44444444444446,24C481.48148148148147,24.416666666666668,496.29629629629625,-1.8333333333333333,533.3333333333333,-1C570.3703703703703,-0.16666666666666674,585.1851851851851,27.166666666666668,622.2222222222222,28C659.2592592592592,28.833333333333332,674.074074074074,2.5833333333333335,711.1111111111111,3C748.1481481481482,3.4166666666666665,781.4814814814815,24.375,800,30" transform="matrix(1,0,0,1,0,590)"></path><path d="M10,10C26.435185185185183,10.416666666666666,53.93518518518518,15.958333333333332,88.88888888888889,12C123.84259259259258,8.041666666666668,140.74074074074073,-10.666666666666666,177.77777777777777,-9C214.8148148148148,-7.333333333333334,229.6296296296296,18.75,266.66666666666663,20C303.7037037037037,21.25,318.5185185185185,-3.833333333333333,355.55555555555554,-3C392.5925925925926,-2.166666666666667,407.40740740740745,23.583333333333332,444.44444444444446,24C481.48148148148147,24.416666666666668,496.29629629629625,-1.8333333333333333,533.3333333333333,-1C570.3703703703703,-0.16666666666666674,585.1851851851851,27.166666666666668,622.2222222222222,28C659.2592592592592,28.833333333333332,674.074074074074,2.5833333333333335,711.1111111111111,3C748.1481481481482,3.4166666666666665,781.4814814814815,24.375,800,30" transform="matrix(1,0,0,1,0,531)"></path><path d="M10,10C26.435185185185183,10.416666666666666,53.93518518518518,15.958333333333332,88.88888888888889,12C123.84259259259258,8.041666666666668,140.74074074074073,-10.666666666666666,177.77777777777777,-9C214.8148148148148,-7.333333333333334,229.6296296296296,18.75,266.66666666666663,20C303.7037037037037,21.25,318.5185185185185,-3.833333333333333,355.55555555555554,-3C392.5925925925926,-2.166666666666667,407.40740740740745,23.583333333333332,444.44444444444446,24C481.48148148148147,24.416666666666668,496.29629629629625,-1.8333333333333333,533.3333333333333,-1C570.3703703703703,-0.16666666666666674,585.1851851851851,27.166666666666668,622.2222222222222,28C659.2592592592592,28.833333333333332,674.074074074074,2.5833333333333335,711.1111111111111,3C748.1481481481482,3.4166666666666665,781.4814814814815,24.375,800,30" transform="matrix(1,0,0,1,0,472)"></path><path d="M10,10C26.435185185185183,10.416666666666666,53.93518518518518,15.958333333333332,88.88888888888889,12C123.84259259259258,8.041666666666668,140.74074074074073,-10.666666666666666,177.77777777777777,-9C214.8148148148148,-7.333333333333334,229.6296296296296,18.75,266.66666666666663,20C303.7037037037037,21.25,318.5185185185185,-3.833333333333333,355.55555555555554,-3C392.5925925925926,-2.166666666666667,407.40740740740745,23.583333333333332,444.44444444444446,24C481.48148148148147,24.416666666666668,496.29629629629625,-1.8333333333333333,533.3333333333333,-1C570.3703703703703,-0.16666666666666674,585.1851851851851,27.166666666666668,622.2222222222222,28C659.2592592592592,28.833333333333332,674.074074074074,2.5833333333333335,711.1111111111111,3C748.1481481481482,3.4166666666666665,781.4814814814815,24.375,800,30" transform="matrix(1,0,0,1,0,413)"></path><path d="M10,10C26.435185185185183,10.416666666666666,53.93518518518518,15.958333333333332,88.88888888888889,12C123.84259259259258,8.041666666666668,140.74074074074073,-10.666666666666666,177.77777777777777,-9C214.8148148148148,-7.333333333333334,229.6296296296296,18.75,266.66666666666663,20C303.7037037037037,21.25,318.5185185185185,-3.833333333333333,355.55555555555554,-3C392.5925925925926,-2.166666666666667,407.40740740740745,23.583333333333332,444.44444444444446,24C481.48148148148147,24.416666666666668,496.29629629629625,-1.8333333333333333,533.3333333333333,-1C570.3703703703703,-0.16666666666666674,585.1851851851851,27.166666666666668,622.2222222222222,28C659.2592592592592,28.833333333333332,674.074074074074,2.5833333333333335,711.1111111111111,3C748.1481481481482,3.4166666666666665,781.4814814814815,24.375,800,30" transform="matrix(1,0,0,1,0,354)"></path><path d="M10,10C26.435185185185183,10.416666666666666,53.93518518518518,15.958333333333332,88.88888888888889,12C123.84259259259258,8.041666666666668,140.74074074074073,-10.666666666666666,177.77777777777777,-9C214.8148148148148,-7.333333333333334,229.6296296296296,18.75,266.66666666666663,20C303.7037037037037,21.25,318.5185185185185,-3.833333333333333,355.55555555555554,-3C392.5925925925926,-2.166666666666667,407.40740740740745,23.583333333333332,444.44444444444446,24C481.48148148148147,24.416666666666668,496.29629629629625,-1.8333333333333333,533.3333333333333,-1C570.3703703703703,-0.16666666666666674,585.1851851851851,27.166666666666668,622.2222222222222,28C659.2592592592592,28.833333333333332,674.074074074074,2.5833333333333335,711.1111111111111,3C748.1481481481482,3.4166666666666665,781.4814814814815,24.375,800,30" transform="matrix(1,0,0,1,0,295)"></path><path d="M10,10C26.435185185185183,10.416666666666666,53.93518518518518,15.958333333333332,88.88888888888889,12C123.84259259259258,8.041666666666668,140.74074074074073,-10.666666666666666,177.77777777777777,-9C214.8148148148148,-7.333333333333334,229.6296296296296,18.75,266.66666666666663,20C303.7037037037037,21.25,318.5185185185185,-3.833333333333333,355.55555555555554,-3C392.5925925925926,-2.166666666666667,407.40740740740745,23.583333333333332,444.44444444444446,24C481.48148148148147,24.416666666666668,496.29629629629625,-1.8333333333333333,533.3333333333333,-1C570.3703703703703,-0.16666666666666674,585.1851851851851,27.166666666666668,622.2222222222222,28C659.2592592592592,28.833333333333332,674.074074074074,2.5833333333333335,711.1111111111111,3C748.1481481481482,3.4166666666666665,781.4814814814815,24.375,800,30" transform="matrix(1,0,0,1,0,236)"></path><path d="M10,10C26.435185185185183,10.416666666666666,53.93518518518518,15.958333333333332,88.88888888888889,12C123.84259259259258,8.041666666666668,140.74074074074073,-10.666666666666666,177.77777777777777,-9C214.8148148148148,-7.333333333333334,229.6296296296296,18.75,266.66666666666663,20C303.7037037037037,21.25,318.5185185185185,-3.833333333333333,355.55555555555554,-3C392.5925925925926,-2.166666666666667,407.40740740740745,23.583333333333332,444.44444444444446,24C481.48148148148147,24.416666666666668,496.29629629629625,-1.8333333333333333,533.3333333333333,-1C570.3703703703703,-0.16666666666666674,585.1851851851851,27.166666666666668,622.2222222222222,28C659.2592592592592,28.833333333333332,674.074074074074,2.5833333333333335,711.1111111111111,3C748.1481481481482,3.4166666666666665,781.4814814814815,24.375,800,30" transform="matrix(1,0,0,1,0,177)"></path><path d="M10,10C26.435185185185183,10.416666666666666,53.93518518518518,15.958333333333332,88.88888888888889,12C123.84259259259258,8.041666666666668,140.74074074074073,-10.666666666666666,177.77777777777777,-9C214.8148148148148,-7.333333333333334,229.6296296296296,18.75,266.66666666666663,20C303.7037037037037,21.25,318.5185185185185,-3.833333333333333,355.55555555555554,-3C392.5925925925926,-2.166666666666667,407.40740740740745,23.583333333333332,444.44444444444446,24C481.48148148148147,24.416666666666668,496.29629629629625,-1.8333333333333333,533.3333333333333,-1C570.3703703703703,-0.16666666666666674,585.1851851851851,27.166666666666668,622.2222222222222,28C659.2592592592592,28.833333333333332,674.074074074074,2.5833333333333335,711.1111111111111,3C748.1481481481482,3.4166666666666665,781.4814814814815,24.375,800,30" transform="matrix(1,0,0,1,0,118)"></path><path d="M10,10C26.435185185185183,10.416666666666666,53.93518518518518,15.958333333333332,88.88888888888889,12C123.84259259259258,8.041666666666668,140.74074074074073,-10.666666666666666,177.77777777777777,-9C214.8148148148148,-7.333333333333334,229.6296296296296,18.75,266.66666666666663,20C303.7037037037037,21.25,318.5185185185185,-3.833333333333333,355.55555555555554,-3C392.5925925925926,-2.166666666666667,407.40740740740745,23.583333333333332,444.44444444444446,24C481.48148148148147,24.416666666666668,496.29629629629625,-1.8333333333333333,533.3333333333333,-1C570.3703703703703,-0.16666666666666674,585.1851851851851,27.166666666666668,622.2222222222222,28C659.2592592592592,28.833333333333332,674.074074074074,2.5833333333333335,711.1111111111111,3C748.1481481481482,3.4166666666666665,781.4814814814815,24.375,800,30" transform="matrix(1,0,0,1,0,59)"></path></g></svg>